<?xml version="1.0" encoding="UTF-8"?>
<svg id="Layer_1" xmlns="http://www.w3.org/2000/svg" xmlns:xlink="http://www.w3.org/1999/xlink" viewBox="0 0 146.13 47.95">
  <defs>
    <style>
      .cls-1 {
        fill: none;
      }

      .cls-2 {
        fill: #00263b;
      }

      .cls-3 {
        clip-path: url(#clippath);
      }
    </style>
    <clipPath id="clippath">
      <rect class="cls-1" x="2.97" y=".97" width="140.18" height="46"/>
    </clipPath>
  </defs>
  <g class="cls-3">
    <path class="cls-2" d="M6.91,11.08l18.46,13.72v-13.84L15.39,3.54c-3.42,1.77-6.33,4.37-8.48,7.54"/>
    <path class="cls-2" d="M25.37,9.46V.97c-3.11.08-6.07.78-8.76,1.98l8.76,6.51Z"/>
    <path class="cls-2" d="M26.58,33.97v13c12.43-.32,22.41-10.49,22.41-23,0-2.09-.28-4.12-.81-6.05l-21.6,16.05Z"/>
    <path class="cls-2" d="M2.97,23.5l22.4,16.64v-13.84L6.26,12.1c-2.02,3.34-3.2,7.23-3.29,11.4"/>
    <path class="cls-2" d="M25.37,46.97v-5.33L2.99,25.01c.54,12.03,10.3,21.65,22.39,21.96"/>
    <path class="cls-2" d="M41.83,7.3l-15.25,11.33v13.84l21.23-15.77c-1.21-3.61-3.28-6.83-5.98-9.4"/>
    <path class="cls-2" d="M26.58.97v16.15l14.34-10.65c-3.88-3.32-8.87-5.36-14.34-5.5"/>
    <polygon class="cls-2" points="58.18 29.81 61.34 29.81 61.34 20.81 64.96 20.81 64.96 29.81 68.12 29.81 68.12 20.81 71.69 20.81 71.69 29.81 74.84 29.81 74.84 17.89 58.18 17.89 58.18 29.81"/>
    <path class="cls-2" d="M87.34,19.08c-.53-.51-1.12-.9-1.79-1.16-.67-.26-1.36-.39-2.06-.39-1.16,0-2.2.29-3.11.87-.91.58-1.62,1.36-2.12,2.32-.5.97-.75,2.01-.75,3.12s.25,2.16.75,3.12c.5.97,1.21,1.74,2.12,2.32.91.58,1.94.87,3.11.87.7,0,1.39-.14,2.06-.42.67-.28,1.27-.69,1.79-1.23l.05,1.29h3.06v-11.92h-3.06l-.05,1.2ZM86.94,25.56c-.3.52-.7.93-1.22,1.22-.52.3-1.08.44-1.69.44s-1.17-.15-1.69-.45c-.52-.3-.93-.71-1.23-1.22-.3-.51-.46-1.08-.46-1.7s.15-1.19.46-1.7c.3-.51.71-.92,1.23-1.22.52-.3,1.08-.45,1.69-.45s1.17.15,1.69.44c.52.3.92.7,1.22,1.22.29.52.44,1.09.44,1.71s-.15,1.19-.44,1.71"/>
    <path class="cls-2" d="M99.07,22.79l-1.65-.65c-.38-.14-.66-.3-.84-.45-.18-.16-.26-.35-.26-.58,0-.25.11-.47.34-.65.22-.17.52-.26.89-.26.48,0,.86.13,1.14.38.28.26.45.56.51.91l2.75-.48c-.06-.61-.28-1.18-.63-1.71-.36-.53-.86-.97-1.5-1.29-.64-.33-1.38-.49-2.23-.49s-1.6.16-2.25.48c-.65.32-1.16.77-1.52,1.34-.36.57-.54,1.22-.54,1.94,0,1.53.92,2.66,2.75,3.38l1.96.79c.64.24.96.59.96,1.05,0,.29-.12.52-.35.71-.23.18-.54.27-.92.27-.5,0-.91-.14-1.25-.41-.33-.27-.57-.63-.72-1.08l-2.78.79c.08.58.32,1.12.71,1.63.39.51.92.93,1.59,1.26.67.33,1.45.49,2.35.49.85,0,1.62-.16,2.31-.49.69-.33,1.24-.78,1.64-1.38.4-.59.6-1.26.6-2.01,0-.86-.27-1.57-.81-2.12-.54-.55-1.29-1.01-2.25-1.38"/>
    <path class="cls-2" d="M113.86,19.08c-.53-.51-1.12-.9-1.79-1.16-.67-.26-1.36-.39-2.06-.39-1.16,0-2.2.29-3.11.87-.91.58-1.62,1.36-2.12,2.32-.5.97-.75,2.01-.75,3.12s.25,2.16.75,3.12c.5.97,1.21,1.74,2.12,2.32.91.58,1.94.87,3.11.87.7,0,1.39-.14,2.06-.42.67-.28,1.27-.69,1.79-1.23l.05,1.29h3.07v-11.92h-3.07l-.05,1.2ZM113.46,25.56c-.3.52-.7.93-1.22,1.22-.52.3-1.08.44-1.69.44s-1.17-.15-1.69-.45c-.52-.3-.93-.71-1.23-1.22-.3-.51-.46-1.08-.46-1.7s.15-1.19.46-1.7c.3-.51.71-.92,1.23-1.22.52-.3,1.08-.45,1.69-.45s1.17.15,1.69.44c.52.3.92.7,1.22,1.22.29.52.44,1.09.44,1.71s-.15,1.19-.44,1.71"/>
    <path class="cls-2" d="M129.46,19.08c-.53-.51-1.12-.9-1.79-1.16-.67-.26-1.36-.39-2.06-.39-1.16,0-2.2.29-3.11.87-.91.58-1.62,1.36-2.12,2.32-.5.97-.75,2.01-.75,3.12s.25,2.16.75,3.12c.5.97,1.21,1.74,2.12,2.32.91.58,1.94.87,3.11.87.7,0,1.39-.14,2.06-.42.67-.28,1.27-.69,1.79-1.23l.05,1.29h3.06v-11.92h-3.06l-.05,1.2ZM129.07,25.56c-.3.52-.7.93-1.22,1.22-.52.3-1.08.44-1.69.44s-1.17-.15-1.69-.45c-.52-.3-.93-.71-1.23-1.22-.3-.51-.46-1.08-.46-1.7s.15-1.19.46-1.7c.3-.51.71-.92,1.23-1.22.52-.3,1.08-.45,1.69-.45s1.17.15,1.69.44c.52.3.92.7,1.22,1.22.29.52.44,1.09.44,1.71s-.15,1.19-.44,1.71"/>
    <polygon class="cls-2" points="136.02 17.89 136.02 29.81 139.18 29.81 139.18 20.81 143.16 20.81 143.16 17.89 136.02 17.89"/>
  </g>
</svg>