<svg xmlns="http://www.w3.org/2000/svg" width="149.174" height="47.119" viewBox="0 0 149.174 47.119">
  <g id="logos" transform="translate(0 -5.7)">
    <g id="Group_71681" data-name="Group 71681" transform="translate(0 5.7)">
      <g id="Group_71680" data-name="Group 71680">
        <path id="Path_98082" data-name="Path 98082" d="M142.226,17.932c-1.276.053-7.658.638-7.871,6.116v1.7c-.585.266-1.17.585-1.7.8V22.824c.053-.372,1.117-6.116,9.413-6.169a4.937,4.937,0,0,1,.16,1.276ZM126.7,12.454a20.869,20.869,0,0,0-9.945-5.105,12.039,12.039,0,0,0-1.33,1.489,17.378,17.378,0,0,1,8.935,3.935,23.135,23.135,0,0,0-3.35,5.265,12.5,12.5,0,0,0-8.3-4.148c-.16.479-.266.9-.425,1.383.585.053,7.233,1.117,9.254,6.541a16.074,16.074,0,0,1,5.159-9.36Zm15.263,3.67a10.72,10.72,0,0,0-.425-1.542,11.325,11.325,0,0,0-8.562,3.457,20.343,20.343,0,0,0-3.35-5.265,17.541,17.541,0,0,1,9.2-3.563,18.521,18.521,0,0,0-1.276-1.489,22.412,22.412,0,0,0-10.1,4.84,18.619,18.619,0,0,1,5.105,9.254c.638-1.915,2.819-5.637,9.413-5.69Zm-4.84-8.935a19.21,19.21,0,0,0-1.6-1.33A22.023,22.023,0,0,0,126.963,9.9a21.982,21.982,0,0,0-8.35-4.2c-.479.372-1.01.745-1.489,1.17a21.465,21.465,0,0,1,9.892,5.212,22.988,22.988,0,0,1,10.1-4.893ZM112.072,15.7v-.266c-.16.638-.266,1.17-.372,1.808,1.383.213,7.552,1.383,7.765,6.807l.053,1.7a10.835,10.835,0,0,0,1.7.691V22.718c-1.489-6.063-9.094-7.02-9.147-7.02Zm14.944-2.872a16.343,16.343,0,0,0-5.318,9.945v3.882a7.193,7.193,0,0,0,1.755.479v-1.17a17.108,17.108,0,0,1,3.35-10.317c.053-.053.053-.16.16-.16.053.053.053.16.16.16a17.108,17.108,0,0,1,3.35,10.317v1.17s.745-.16,1.755-.425V22.771a18.1,18.1,0,0,0-5.212-9.945Z" transform="translate(-52.296 -5.7)"/>
        <path id="Path_98083" data-name="Path 98083" d="M127.264,72.385h.638l-4.467,11.062-4.467-11.062h1.7l3.35,8.3,3.244-8.3Zm3.67,0h6.222v.638h-4.68v3.989h3.935v.638h-3.935v5.212h4.68V83.5h-6.222V72.385Zm18.241.16v10.9l-7.924-8.19V83.34h-.638V72.385l7.924,8.19v-8.03ZM108.969,83.394h.638l1.33-3.244h4.2l1.33,3.244h1.7L113.6,72.172l-4.627,11.221Zm2.18-3.829,1.915-4.574,1.915,4.574Zm-6.86-7.126h1.6V83.394h-1.6V77.7h-5.9v5.69H96.844V77.7H95.78l.479-.638h.585V72.438h1.6v4.627h5.9c-.053,0-.053-4.627-.053-4.627ZM28.133,77.171a2.226,2.226,0,0,0,1.7-2.234c0-1.755-1.6-2.553-3.67-2.553H23.879V83.34H26.91c2.287,0,4.308-.9,4.308-3.031,0-1.7-1.223-2.819-3.085-3.138ZM26.8,82.755H25.527V73.023h.851c1.542,0,2.021.691,2.021,1.808,0,.213.16,1.968-1.383,2.287a4.189,4.189,0,0,1,1.7.851,2.691,2.691,0,0,1,.851,2.127A2.442,2.442,0,0,1,26.8,82.755ZM7.233,80.575c0,2.446-2.553,3.031-3.935,3.031a5.439,5.439,0,0,1-2.553-.585L0,81.639a5.034,5.034,0,0,0,3.3,1.33c1.489,0,2.393-.691,2.393-1.915,0-1.276-1.383-2.234-2.287-2.925C1.436,76.746.266,75.895.266,74.406c0-1.915,1.808-2.606,3.457-2.606a4.852,4.852,0,0,1,1.755.266l.638,1.064a5.879,5.879,0,0,0-2.446-.691c-1.17,0-2.074.585-2.074,1.489,0,1.117,1.33,1.808,2.234,2.553,2.127,1.383,3.4,2.34,3.4,4.095Zm7.871-8.4a5.375,5.375,0,0,0-5.212,5.69c0,3.244,2.234,5.69,5.212,5.69s5.212-2.287,5.212-5.69S17.975,72.172,15.1,72.172Zm0,10.8c-2.18,0-3.563-2.127-3.563-5.052s1.489-5.052,3.563-5.052,3.563,2.127,3.563,5.052S17.178,82.968,15.1,82.968Zm32.068.425h.638l1.33-3.244h4.2l1.33,3.244h1.7L51.746,72.172,47.172,83.394Zm2.18-3.829,1.915-4.574,1.915,4.574Zm-6.914-7.18h1.6V83.34h-1.6V77.49h-5.9v5.8h-1.6v-10.9h1.6v4.467h5.9Zm32.334,0H81v.638h-4.68v3.935h3.935V77.6H76.316v5.212H81v.638H74.773V72.385Zm-3.51,8.35c0,2.553-2.553,3.031-3.935,3.031a5.438,5.438,0,0,1-2.553-.585l-.745-1.33a5.076,5.076,0,0,0,3.3,1.276c1.489,0,2.393-.691,2.393-1.915,0-1.276-1.383-2.234-2.34-2.925-1.968-1.383-3.138-2.234-3.138-3.723,0-1.915,1.808-2.606,3.457-2.606a4.852,4.852,0,0,1,1.755.266l.585,1.064a4.493,4.493,0,0,0-2.393-.691c-1.223,0-2.021.585-2.021,1.489,0,1.117,1.33,1.808,2.234,2.553,2.18,1.436,3.4,2.393,3.4,4.095Zm12.657,2.659h.638l1.33-3.244h4.2l1.33,3.244h1.7L88.494,72.172,83.921,83.394Zm2.18-3.882,1.915-4.574,1.915,4.574Z" transform="translate(0 -36.647)"/>
      </g>
    </g>
  </g>
</svg>
